<svg width="360" height="408" viewBox="0 0 360 408" fill="none" xmlns="http://www.w3.org/2000/svg">
<g filter="url(#filter0_d)">
<path d="M7.80609 157.596C-10.9611 148.872 40.3677 44.9957 59 11C41.5465 46.2244 18.3529 153.049 10.1272 158.043C9.43261 158.465 8.54294 157.938 7.80609 157.596Z" fill="#1E2541"/>
<path d="M124 141C81 83 61 24.3333 59 11M59 11C40.3677 44.9957 -10.9611 148.872 7.80609 157.596C8.54294 157.938 9.43261 158.465 10.1272 158.043C18.3529 153.049 41.5465 46.2244 59 11Z" stroke="#1E2541" stroke-width="7"/>
<path d="M352.194 157.596C370.961 148.872 319.632 44.9957 301 11C318.454 46.2244 341.647 153.049 349.873 158.043C350.567 158.465 351.457 157.938 352.194 157.596Z" fill="#212B50"/>
<path d="M236 141C279 83 299 24.3333 301 11M301 11C319.632 44.9957 370.961 148.872 352.194 157.596C351.457 157.938 350.567 158.465 349.873 158.043C341.647 153.049 318.454 46.2244 301 11Z" stroke="#212B50" stroke-width="7"/>
<path fill-rule="evenodd" clip-rule="evenodd" d="M201.071 403.071C214.314 400.002 226.948 393.604 237.651 383.876L274.694 350.21C297.244 329.715 306.57 298.406 298.909 268.912L278.089 188.757C268.7 152.609 236.071 127.372 198.723 127.372H166.277C128.929 127.372 96.2999 152.609 86.9107 188.757L66.0907 268.912C58.43 298.406 67.7558 329.715 90.306 350.21L127.349 383.876C138.29 393.82 151.249 400.285 164.814 403.271L161.073 391.516C160.047 388.291 162.454 385 165.838 385H199.454C202.751 385 205.145 388.135 204.278 391.316L201.071 403.071Z" fill="#1E2541"/>
<path fill-rule="evenodd" clip-rule="evenodd" d="M179.144 384.628C158.76 349.733 147 308.63 147 264.628C147 212.973 163.207 165.312 190.547 127L198.723 127C236.071 127 268.7 152.237 278.089 188.385L298.909 268.541C306.57 298.034 297.244 329.343 274.694 349.838L237.651 383.504C226.948 393.232 214.314 399.631 201.071 402.7L204.278 390.944C205.145 387.763 202.751 384.628 199.454 384.628H179.144Z" fill="#212B50"/>
<ellipse cx="214.5" cy="203" rx="44.5" ry="45" fill="#EEFFFF"/>
<path d="M258.5 203C258.5 227.582 238.795 247.5 214.5 247.5C190.205 247.5 170.5 227.582 170.5 203C170.5 178.418 190.205 158.5 214.5 158.5C238.795 158.5 258.5 178.418 258.5 203Z" stroke="#A742EA" stroke-opacity="0.2"/>
<mask id="path-9-inside-1" fill="white">
<path fill-rule="evenodd" clip-rule="evenodd" d="M244.331 236.392C240.564 237.44 236.596 238 232.5 238C207.923 238 188 217.853 188 193C188 179.753 193.661 167.843 202.669 159.608C183.835 164.847 170 182.29 170 203C170 227.853 189.923 248 214.5 248C225.977 248 236.439 243.607 244.331 236.392Z"/>
</mask>
<path fill-rule="evenodd" clip-rule="evenodd" d="M244.331 236.392C240.564 237.44 236.596 238 232.5 238C207.923 238 188 217.853 188 193C188 179.753 193.661 167.843 202.669 159.608C183.835 164.847 170 182.29 170 203C170 227.853 189.923 248 214.5 248C225.977 248 236.439 243.607 244.331 236.392Z" fill="#A742EA" fill-opacity="0.2"/>
<path d="M244.331 236.392L245.006 237.13L244.063 235.429L244.331 236.392ZM202.669 159.608L203.344 160.346L202.401 158.644L202.669 159.608ZM244.063 235.429C240.382 236.453 236.505 237 232.5 237V239C236.688 239 240.745 238.428 244.599 237.356L244.063 235.429ZM232.5 237C208.486 237 189 217.311 189 193H187C187 218.395 207.361 239 232.5 239V237ZM189 193C189 180.043 194.535 168.398 203.344 160.346L201.994 158.87C192.786 167.287 187 179.462 187 193H189ZM171 203C171 182.744 184.531 165.691 202.937 160.571L202.401 158.644C183.139 164.003 169 181.836 169 203H171ZM214.5 247C190.486 247 171 227.311 171 203H169C169 228.395 189.361 249 214.5 249V247ZM243.656 235.654C235.94 242.708 225.716 247 214.5 247V249C226.237 249 236.937 244.506 245.006 237.13L243.656 235.654Z" fill="#A742EA" fill-opacity="0.2" mask="url(#path-9-inside-1)"/>
<circle cx="195" cy="218" r="8" fill="#EEFFFF"/>
<circle cx="195" cy="218" r="7.5" stroke="#A742EA" stroke-opacity="0.2"/>
<circle cx="238.5" cy="208.5" r="6.5" fill="#A742EA" fill-opacity="0.2"/>
<circle cx="238.5" cy="208.5" r="6" stroke="#A742EA" stroke-opacity="0.2"/>
<circle cx="240" cy="184" r="4" fill="#A742EA" fill-opacity="0.2"/>
<circle cx="240" cy="184" r="3.5" stroke="#A742EA" stroke-opacity="0.2"/>
<path d="M142.146 189.484L141.799 193.36L144.516 196.146L140.64 195.799L137.854 198.516L138.201 194.64L135.484 191.854L139.36 192.201L142.146 189.484Z" fill="#EEFFFF"/>
<path d="M115.932 227.971L118.462 230.928L122.353 230.932L119.396 233.462L119.392 237.353L116.862 234.396L112.971 234.392L115.928 231.862L115.932 227.971Z" fill="#EEFFFF"/>
<path d="M162.695 272.93L159.322 274.871L158.601 278.695L156.66 275.322L152.836 274.601L156.208 272.66L156.93 268.836L158.871 272.208L162.695 272.93Z" fill="#EEFFFF"/>
<path d="M97.704 283.636L95.9772 287.123L97.5005 290.704L94.0132 288.977L90.4323 290.5L92.1591 287.013L90.6358 283.432L94.1231 285.159L97.704 283.636Z" fill="#EEFFFF"/>
<path d="M263.808 267.146L263.462 271.022L266.178 273.808L262.302 273.462L259.516 276.178L259.863 272.302L257.146 269.516L261.022 269.863L263.808 267.146Z" fill="#EEFFFF"/>
<path d="M216.883 274.723L218.786 278.118L222.601 278.883L219.207 280.786L218.442 284.601L216.539 281.207L212.723 280.442L216.118 278.539L216.883 274.723Z" fill="#EEFFFF"/>
<path d="M183.808 318.146L183.462 322.022L186.178 324.808L182.302 324.462L179.516 327.178L179.863 323.302L177.146 320.516L181.022 320.863L183.808 318.146Z" fill="#EEFFFF"/>
</g>
<defs>
<filter id="filter0_d" x="0.24559" y="0.212708" width="359.509" height="407.059" filterUnits="userSpaceOnUse" color-interpolation-filters="sRGB">
<feFlood flood-opacity="0" result="BackgroundImageFix"/>
<feColorMatrix in="SourceAlpha" type="matrix" values="0 0 0 0 0 0 0 0 0 0 0 0 0 0 0 0 0 0 127 0"/>
<feOffset dy="4"/>
<feColorMatrix type="matrix" values="0 0 0 0 0.654902 0 0 0 0 0.258824 0 0 0 0 0.917647 0 0 0 0.2 0"/>
<feBlend mode="normal" in2="BackgroundImageFix" result="effect1_dropShadow"/>
<feBlend mode="normal" in="SourceGraphic" in2="effect1_dropShadow" result="shape"/>
</filter>
</defs>
</svg>
